<svg width="25" height="25" viewBox="0 0 25 25" fill="none" xmlns="http://www.w3.org/2000/svg">
<path d="M7.29199 10.4167H17.7087V14.5834H7.29199V10.4167Z" fill="#5A5958"/>
<path d="M12.4997 2.08325C6.75592 2.08325 2.08301 6.75617 2.08301 12.4999C2.08301 18.2437 6.75592 22.9166 12.4997 22.9166C18.2434 22.9166 22.9163 18.2437 22.9163 12.4999C22.9163 6.75617 18.2434 2.08325 12.4997 2.08325ZM12.4997 20.8333C7.90488 20.8333 4.16634 17.0947 4.16634 12.4999C4.16634 7.90513 7.90488 4.16659 12.4997 4.16659C17.0945 4.16659 20.833 7.90513 20.833 12.4999C20.833 17.0947 17.0945 20.8333 12.4997 20.8333Z" fill="#5A5958"/>
</svg>
