<svg width="17" height="16" viewBox="0 0 17 16" fill="none" xmlns="http://www.w3.org/2000/svg">
<path d="M8.8653 1C7.41567 1.00172 6.0259 1.58174 5.00085 2.61281C3.9758 3.64389 3.39918 5.04184 3.39747 6.5C3.39573 7.69161 3.78269 8.85089 4.49899 9.8C4.49899 9.8 4.64811 9.9975 4.67247 10.026L8.8653 15L13.0601 10.0235C13.082 9.997 13.2316 9.8 13.2316 9.8L13.2321 9.7985C13.9481 8.84981 14.3348 7.69107 14.3331 6.5C14.3314 5.04184 13.7548 3.64389 12.7298 2.61281C11.7047 1.58174 10.3149 1.00172 8.8653 1ZM8.8653 8.5C8.47205 8.5 8.08764 8.3827 7.76066 8.16294C7.43369 7.94318 7.17884 7.63082 7.02835 7.26537C6.87786 6.89991 6.83848 6.49778 6.9152 6.10982C6.99192 5.72186 7.18129 5.36549 7.45936 5.08579C7.73743 4.80608 8.09171 4.6156 8.4774 4.53843C8.8631 4.46126 9.26288 4.50087 9.62619 4.65224C9.98951 4.80362 10.3 5.05996 10.5185 5.38886C10.737 5.71776 10.8536 6.10444 10.8536 6.5C10.8529 7.03023 10.6433 7.53855 10.2705 7.91348C9.89778 8.28841 9.39243 8.49934 8.8653 8.5Z" fill="#ECD59C"/>
</svg>
