<svg width="16" height="16" viewBox="0 0 16 16" fill="none" xmlns="http://www.w3.org/2000/svg">
<path d="M4.4995 11.2564L1.08754 9.19288M4.4995 11.2564L8.09861 9.08428M4.4995 11.2564V14.9998M11.6977 11.2564L8.09861 9.08428M11.6977 11.2564L15.1097 9.19288M11.6977 11.2564V14.9998M1.59862 8.66432C1.3861 8.79276 1.21015 8.97422 1.08782 9.19114C0.965496 9.40806 0.900934 9.65307 0.900391 9.90246V12.2484C0.900934 12.4978 0.965496 12.7428 1.08782 12.9597C1.21015 13.1766 1.3861 13.3581 1.59862 13.4865L3.75808 14.7898C3.98199 14.9252 4.23828 14.9966 4.4995 14.9966C4.76071 14.9966 5.017 14.9252 5.24091 14.7898L8.09861 13.0666V9.08428L4.4995 6.91211L1.59862 8.66432V8.66432ZM8.09861 9.08428V13.0666L10.9563 14.7898C11.1802 14.9252 11.4365 14.9966 11.6977 14.9966C11.9589 14.9966 12.2152 14.9252 12.4391 14.7898L14.5986 13.4865C14.8111 13.3581 14.9871 13.1766 15.1094 12.9597C15.2317 12.7428 15.2963 12.4978 15.2968 12.2484V9.90246C15.2963 9.65307 15.2317 9.40806 15.1094 9.19114C14.9871 8.97422 14.8111 8.79276 14.5986 8.66432L11.6977 6.91211L8.09861 9.08428V9.08428Z" stroke="white" stroke-linecap="round" stroke-linejoin="round"/>
<path d="M8.09813 5.10223L4.68618 3.03867M8.09813 5.10223L11.5101 3.03867M8.09813 9.08453V5.10223M5.19725 2.51011C4.98473 2.63854 4.80878 2.82 4.68646 3.03692C4.56413 3.25384 4.49957 3.49885 4.49902 3.74824V6.91236L8.09813 9.08453L11.6972 6.91236V3.74824C11.6967 3.49885 11.6321 3.25384 11.5098 3.03692C11.3875 2.82 11.2115 2.63854 10.999 2.51011L8.83955 1.2068C8.61564 1.07149 8.35935 1 8.09813 1C7.83692 1 7.58063 1.07149 7.35672 1.2068L5.19725 2.51011V2.51011Z" stroke="white" stroke-linecap="round" stroke-linejoin="round"/>
</svg>
