<svg width="32" height="32" viewBox="0 0 32 32" fill="none" xmlns="http://www.w3.org/2000/svg">
<path d="M16.3336 30.0002C18.1287 30.0026 19.9065 29.6501 21.5649 28.9632C23.2233 28.2762 24.7297 27.2683 25.9973 25.9973C27.2683 24.7297 28.2762 23.2233 28.9632 21.5649C29.6501 19.9065 30.0026 18.1287 30.0002 16.3336C30.0025 14.5386 29.6501 12.7607 28.9631 11.1023C28.2761 9.44392 27.2682 7.93761 25.9973 6.66995C24.7297 5.39898 23.2233 4.39105 21.5649 3.70408C19.9065 3.01712 18.1287 2.66468 16.3336 2.667C14.5386 2.66472 12.7607 3.01718 11.1023 3.70414C9.44392 4.3911 7.93761 5.39901 6.66995 6.66995C5.39901 7.93761 4.3911 9.44392 3.70414 11.1023C3.01718 12.7607 2.66472 14.5386 2.667 16.3336C2.66468 18.1287 3.01712 19.9065 3.70408 21.5649C4.39105 23.2233 5.39898 24.7297 6.66995 25.9973C7.93761 27.2682 9.44392 28.2761 11.1023 28.9631C12.7607 29.6501 14.5386 30.0025 16.3336 30.0002V30.0002Z" stroke="#ECD59C" stroke-width="2" stroke-linejoin="round"/>
<path fill-rule="evenodd" clip-rule="evenodd" d="M16.3333 25.2169C16.7864 25.2169 17.2209 25.037 17.5413 24.7166C17.8617 24.3962 18.0417 23.9617 18.0417 23.5086C18.0417 23.0555 17.8617 22.621 17.5413 22.3006C17.2209 21.9803 16.7864 21.8003 16.3333 21.8003C15.8803 21.8003 15.4457 21.9803 15.1254 22.3006C14.805 22.621 14.625 23.0555 14.625 23.5086C14.625 23.9617 14.805 24.3962 15.1254 24.7166C15.4457 25.037 15.8803 25.2169 16.3333 25.2169Z" fill="#ECD59C"/>
<path d="M16.334 8.13379V19.0671" stroke="#ECD59C" stroke-width="2" stroke-linecap="round" stroke-linejoin="round"/>
</svg>
