<svg width="16" height="11" viewBox="0 0 16 11" fill="none" xmlns="http://www.w3.org/2000/svg">
<path d="M8.1443 5.95601L8.14428 5.95598L8.13999 5.95881C8.11181 5.97735 8.06969 5.9913 8.0235 5.9913H8.02008C7.95334 5.9913 7.91087 5.96934 7.89777 5.95853L7.89707 5.95796L1.1267 0.4H14.909L8.45449 5.70501L8.4541 5.70533L8.16923 5.94006L8.16836 5.94063L8.1443 5.95601ZM10.0346 6.29665L14.9836 10.2571H1.01138L5.9713 6.26704L6.96879 7.08642L6.9699 7.08732C7.26305 7.32638 7.63783 7.45115 8.02235 7.45115C8.40656 7.45115 8.78155 7.32533 9.07484 7.08566L9.07574 7.08491L10.0346 6.29665ZM4.81808 5.32016L0.4 8.87486V1.69314L4.81808 5.32016ZM15.6 1.72321V8.87986L11.1884 5.34894L15.6 1.72321Z" stroke="white" stroke-width="0.8"/>
</svg>
