<svg width="54" height="26" viewBox="0 0 54 26" fill="none" xmlns="http://www.w3.org/2000/svg">
<path fill-rule="evenodd" clip-rule="evenodd" d="M25.8568 9.84871C25.5886 9.63295 25.293 9.45295 24.9777 9.31331C24.7412 9.21973 24.4889 9.17185 24.2343 9.17225C23.4069 9.17225 22.7184 9.61467 22.1625 10.4995C21.6177 11.3575 21.3307 12.3517 21.3351 13.3656C21.3163 13.7457 21.4305 14.1206 21.6583 14.4268C21.7491 14.552 21.8684 14.6542 22.0066 14.725C22.1448 14.7957 22.2979 14.8331 22.4534 14.8339C22.8269 14.8261 23.1877 14.6978 23.4812 14.4684C24.0389 13.9984 24.4924 13.4187 24.8128 12.7661C25.2869 11.8433 25.6358 10.8623 25.8503 9.84871H25.8568ZM26.6325 8.28743L27.2305 7.46991H29.4121L27.9706 13.7856C27.9022 14.0573 27.8546 14.3338 27.8284 14.6127C27.8265 14.6657 27.8369 14.7183 27.8587 14.7667C27.8806 14.8151 27.9133 14.8578 27.9544 14.8916C27.9983 14.9303 28.0494 14.9598 28.1049 14.9785C28.1605 14.9972 28.2192 15.0048 28.2777 15.0006C28.4628 14.9854 28.6425 14.9307 28.8045 14.8403C29.0591 14.7073 29.294 14.54 29.5026 14.3434L30.5918 15.5841C30.1034 16.0644 29.5348 16.457 28.9111 16.7446C28.3839 16.9764 27.8136 17.0965 27.2369 17.0973C26.863 17.1022 26.4921 17.0301 26.1477 16.8857C25.8341 16.752 25.5539 16.5517 25.3267 16.299C25.1031 16.0554 24.9423 15.7617 24.8581 15.443C24.5697 15.7909 24.2309 16.0944 23.8529 16.3439C23.5076 16.5884 23.1288 16.7827 22.7281 16.921C22.3361 17.0431 21.927 17.1026 21.5161 17.0973C20.8933 17.1184 20.2775 16.9605 19.7431 16.6426C19.2086 16.3246 18.7782 15.8602 18.5038 15.3052C18.1969 14.6707 18.0463 13.973 18.0642 13.2694C18.0562 12.4844 18.2074 11.7057 18.5089 10.9798C18.8104 10.2539 19.256 9.5956 19.8192 9.04402C20.3281 8.48625 20.9483 8.0395 21.6404 7.73209C22.3326 7.42469 23.0816 7.26336 23.84 7.25833C24.337 7.25094 24.8315 7.33014 25.3009 7.49235C25.795 7.68543 26.2528 7.95962 26.6551 8.30345L26.6325 8.28743ZM5.02592 7.24229L4.58958 9.16584C4.92828 8.73552 5.31662 8.34602 5.74668 8.0053C6.06652 7.76635 6.42057 7.57617 6.79711 7.44106C7.14756 7.31533 7.51691 7.24922 7.88956 7.2455C8.27179 7.24368 8.65029 7.32008 9.0014 7.46991C9.31527 7.59738 9.59675 7.79227 9.82559 8.04056C10.0523 8.3168 10.2135 8.64 10.2975 8.98631C10.5695 8.61872 10.8965 8.29441 11.2671 8.02454C11.6087 7.7727 11.9868 7.57381 12.3886 7.43465C12.7661 7.30544 13.1626 7.23935 13.5619 7.23908C14.2196 7.2109 14.8619 7.44133 15.3492 7.88027C15.5739 8.08246 15.752 8.33031 15.8713 8.60693C15.9907 8.88355 16.0485 9.18243 16.0409 9.48323C16.0409 9.69482 16.0409 9.89038 16.0118 10.0795C16.0118 10.1725 15.9537 10.3809 15.8793 10.7207L15.1909 13.8433C15.1316 14.0658 15.0937 14.2933 15.0778 14.5229C15.0727 14.5852 15.0807 14.6478 15.1013 14.7069C15.1219 14.7659 15.1546 14.8201 15.1973 14.866C15.2406 14.906 15.2914 14.9371 15.3469 14.9575C15.4024 14.9779 15.4614 14.9871 15.5205 14.9846C15.6652 14.9768 15.8059 14.935 15.931 14.8628C16.2226 14.7163 16.4959 14.5367 16.7455 14.3274L17.8056 15.5424C16.7003 16.5683 15.5626 17.0813 14.4022 17.0813C13.7776 17.1077 13.167 16.8928 12.6989 16.4818C12.4942 16.3068 12.3303 16.0897 12.2187 15.8455C12.107 15.6014 12.0503 15.336 12.0525 15.0679C12.059 14.7138 12.1034 14.3613 12.185 14.0164L12.8961 10.8457C12.9594 10.6118 13.0006 10.3724 13.0189 10.1308C13.0218 10.0487 13.0078 9.96683 12.9778 9.89022C12.9478 9.81361 12.9024 9.74386 12.8444 9.6852C12.7883 9.62895 12.7213 9.5846 12.6474 9.55483C12.5735 9.52507 12.4942 9.51053 12.4145 9.51209C12.1078 9.52607 11.8154 9.64502 11.5871 9.84871C11.0445 10.3304 10.6191 10.9278 10.3427 11.5959C9.8656 12.7423 9.49769 13.9305 9.24381 15.1449L8.83656 16.8568H5.85011L7.18173 11.0381C7.25544 10.7396 7.30836 10.4365 7.3401 10.1308C7.34805 10.0447 7.33679 9.9578 7.30712 9.87642C7.27744 9.79505 7.23008 9.72115 7.16839 9.65996C7.1067 9.59877 7.0322 9.5518 6.95016 9.52236C6.86812 9.49293 6.78056 9.48176 6.69368 9.48965C6.5713 9.49069 6.44998 9.51237 6.33492 9.55376C6.14235 9.63233 5.96346 9.74052 5.80486 9.87435C5.56727 10.0876 5.35672 10.3288 5.17783 10.5925C4.89768 10.9995 4.65123 11.4284 4.44091 11.8749C4.22168 12.3109 4.04316 12.7659 3.90761 13.2342L3.32907 15.4174L3.00586 16.8568H0L1.58373 9.85833H0.116356L0.542991 8.04377C1.78769 7.9666 3.01248 7.69615 4.17264 7.24229H5.02592ZM35.8763 0.000124763H34.8388C34.0308 0.000124763 33.1366 0.0311181 32.1562 0.0930991C30.9 0.159355 30.1372 0.192482 29.8678 0.192482C29.1762 0.192482 28.4231 0.160423 27.6215 0.0930991C26.9913 0.0418044 26.5743 0.00974252 26.3675 0.000124763H26.0895C25.9496 -0.00242799 25.8118 0.0342387 25.692 0.105916C25.6392 0.16013 25.5996 0.225538 25.5761 0.297187C25.5525 0.368835 25.5458 0.44485 25.5562 0.519482C25.5538 0.579518 25.5647 0.639351 25.5882 0.694747C25.6116 0.750143 25.6471 0.799753 25.692 0.840074C25.8988 1.01961 26.7715 1.20555 27.0559 1.24081C29.4315 1.52614 31.4548 1.31134 33.6042 1.24081C35.8149 1.17349 37.5441 1.76979 38.7755 2.84377C40.007 3.91776 40.6372 5.37324 40.6372 7.25191C40.6372 9.0686 40.1158 10.3884 39.0729 11.2112C38.03 12.0341 36.3374 12.4423 33.9952 12.4359H33.6268C33.2292 12.4359 32.8931 12.4359 32.6216 12.4006C32.2337 12.7982 32.2337 13.2256 32.6216 13.683C32.8664 13.657 33.1124 13.6441 33.3585 13.6445C34.5285 13.6445 35.3301 13.7535 35.7729 13.9651C36.2855 14.2411 36.7107 14.6528 37.0011 15.1545L40.8796 21.2457C42.1057 23.1565 43.1626 24.4228 44.0503 25.0448C44.9693 25.6771 46.0674 26.0027 47.1854 25.9745H47.2242C47.7668 25.999 48.3103 25.9516 48.8403 25.8334C48.957 25.8076 49.0615 25.7436 49.1371 25.6517C49.2127 25.5599 49.255 25.4455 49.2572 25.3269C49.2572 25.1313 49.0407 25.0063 48.6108 24.9101C48.2541 24.8499 47.9073 24.742 47.5798 24.5895C46.6457 24.1118 45.2979 22.5409 43.5396 19.8512C43.3263 19.5594 43.1712 19.3222 43.0645 19.1491L38.7852 12.6956C40.1521 12.1288 41.3408 11.2088 42.2274 10.0314C43.0294 8.93743 43.4565 7.61711 43.4459 6.26449C43.4459 4.30033 42.7456 2.76576 41.345 1.66079C40.0113 0.60711 38.1884 0.0535567 35.8763 0.000124763ZM49.0342 4.26079H50.9735L50.2365 7.46671H53.0065L52.554 9.29729H49.7744L48.8371 13.4297C48.7662 13.7082 48.7219 13.9926 48.7045 14.2793C48.6979 14.3725 48.7105 14.4661 48.7416 14.5543C48.7728 14.6425 48.8217 14.7235 48.8855 14.7922C48.9494 14.8527 49.0251 14.8995 49.1079 14.9298C49.1907 14.9602 49.279 14.9733 49.3671 14.9686C49.691 14.9426 50.0021 14.832 50.2689 14.648C50.7349 14.3378 51.153 13.9619 51.51 13.5323L52.7641 14.6127C52.1509 15.3902 51.4114 16.0609 50.5759 16.5972C49.9731 16.9335 49.2927 17.1091 48.6011 17.1069C47.8324 17.1397 47.0811 16.874 46.5067 16.3663C46.2541 16.1584 46.05 15.8985 45.9088 15.6045C45.7676 15.3105 45.6926 14.9896 45.689 14.664C45.7051 14.2068 45.7679 13.7525 45.8764 13.3079L46.7879 9.29729H45.3173L45.7084 7.72639C46.2118 7.59752 46.688 7.38038 47.1143 7.08521C47.5358 6.76361 47.9015 6.37594 48.1971 5.93748C48.553 5.428 48.8317 4.8696 49.0245 4.28003L49.0342 4.26079Z" fill="#E30613"/>
</svg>
