<svg width="25" height="25" viewBox="0 0 25 25" fill="none" xmlns="http://www.w3.org/2000/svg">
<path d="M19.5319 20.8332H5.4694C4.60467 20.8332 3.7727 20.5024 3.14416 19.9085C2.51562 19.3146 2.13815 18.5028 2.08919 17.6394L2.08398 17.4478V6.51025C2.08391 5.91637 2.30929 5.34461 2.71458 4.91051C3.11986 4.47641 3.67483 4.21236 4.26732 4.17171L4.42773 4.1665H17.4486C18.0425 4.16643 18.6142 4.39181 19.0483 4.7971C19.4824 5.20238 19.7465 5.75735 19.7871 6.34984L19.7923 6.51025V7.2915H20.5736C21.1675 7.29143 21.7392 7.51681 22.1733 7.9221C22.6074 8.32738 22.8715 8.88235 22.9121 9.47484L22.9173 9.63525V17.4478C22.9174 18.3125 22.5865 19.1445 21.9927 19.773C21.3988 20.4015 20.5869 20.779 19.7236 20.828L19.5319 20.8332H5.4694H19.5319ZM5.4694 19.2707H19.5319C19.9896 19.2706 20.4305 19.0985 20.767 18.7883C21.1036 18.4782 21.3112 18.0528 21.3486 17.5967L21.3548 17.4478V9.63525C21.3548 9.44646 21.2864 9.26406 21.1624 9.12178C21.0383 8.9795 20.8669 8.88697 20.6798 8.8613L20.5736 8.854H19.7923V16.9269C19.7923 17.1157 19.7239 17.2981 19.5999 17.4404C19.4758 17.5827 19.3044 17.6752 19.1173 17.7009L19.0111 17.7082C18.8223 17.7082 18.6399 17.6398 18.4976 17.5157C18.3553 17.3916 18.2628 17.2202 18.2371 17.0332L18.2298 16.9269V6.51025C18.2298 6.32146 18.1614 6.13906 18.0374 5.99678C17.9133 5.8545 17.7419 5.76197 17.5548 5.7363L17.4486 5.729H4.42773C4.23895 5.72901 4.05654 5.79738 3.91427 5.92147C3.77199 6.04556 3.67945 6.21697 3.65378 6.404L3.64648 6.51025V17.4478C3.6465 17.9052 3.81854 18.346 4.12844 18.6825C4.43835 19.0191 4.86346 19.2268 5.3194 19.2644L5.4694 19.2707H19.5319H5.4694ZM12.7569 15.104H15.8882C16.0861 15.1041 16.2766 15.1793 16.4213 15.3144C16.5659 15.4495 16.6539 15.6345 16.6673 15.832C16.6808 16.0295 16.6189 16.2247 16.494 16.3783C16.369 16.5318 16.1905 16.6322 15.9944 16.6592L15.8882 16.6665H12.7569C12.559 16.6664 12.3684 16.5912 12.2238 16.4561C12.0791 16.321 11.9912 16.136 11.9777 15.9385C11.9642 15.741 12.0262 15.5458 12.1511 15.3922C12.276 15.2387 12.4546 15.1383 12.6507 15.1113L12.7569 15.104H15.8882H12.7569ZM9.62878 11.4634C9.83598 11.4634 10.0347 11.5457 10.1812 11.6922C10.3277 11.8387 10.41 12.0374 10.41 12.2446V15.8853C10.41 16.0925 10.3277 16.2912 10.1812 16.4377C10.0347 16.5842 9.83598 16.6665 9.62878 16.6665H5.98815C5.78095 16.6665 5.58224 16.5842 5.43572 16.4377C5.28921 16.2912 5.2069 16.0925 5.2069 15.8853V12.2446C5.2069 12.0374 5.28921 11.8387 5.43572 11.6922C5.58224 11.5457 5.78095 11.4634 5.98815 11.4634H9.62878ZM8.84753 13.0259H6.7694V15.104H8.84753V13.0259ZM12.7569 11.4634H15.8882C16.0861 11.4634 16.2766 11.5386 16.4213 11.6738C16.5659 11.8089 16.6539 11.9939 16.6673 12.1914C16.6808 12.3889 16.6189 12.5841 16.494 12.7376C16.369 12.8912 16.1905 12.9916 15.9944 13.0186L15.8882 13.0259H12.7569C12.5576 13.0279 12.365 12.9536 12.2186 12.8183C12.0722 12.683 11.9831 12.4968 11.9695 12.2979C11.9559 12.099 12.0189 11.9024 12.1455 11.7484C12.2722 11.5945 12.4529 11.4947 12.6507 11.4696L12.7569 11.4634H15.8882H12.7569ZM5.98815 7.81442H15.8882C16.0875 7.81239 16.2801 7.88665 16.4265 8.02199C16.5729 8.15734 16.662 8.34352 16.6755 8.54242C16.6891 8.74131 16.6261 8.93788 16.4995 9.09186C16.3729 9.24584 16.1922 9.34558 15.9944 9.37067L15.8882 9.37692H5.98815C5.79021 9.37686 5.59967 9.30167 5.45503 9.16653C5.3104 9.0314 5.22245 8.8464 5.20896 8.64892C5.19547 8.45144 5.25744 8.2562 5.38235 8.10265C5.50727 7.9491 5.68581 7.84869 5.8819 7.82171L5.98815 7.81442H15.8882H5.98815Z" fill="white"/>
</svg>
