<svg width="14" height="15" viewBox="0 0 14 15" fill="none" xmlns="http://www.w3.org/2000/svg">
<path fill-rule="evenodd" clip-rule="evenodd" d="M7 0C4.91829 0 3.23073 1.66494 3.23073 3.71875C3.23073 5.77256 4.91829 7.4375 7 7.4375C9.08172 7.4375 10.7693 5.77256 10.7693 3.71875C10.7693 1.66494 9.08172 0 7 0ZM4.30766 3.71875C4.30766 2.25174 5.51306 1.0625 7 1.0625C8.48694 1.0625 9.69234 2.25174 9.69234 3.71875C9.69234 5.18576 8.48694 6.375 7 6.375C5.51306 6.375 4.30766 5.18576 4.30766 3.71875Z" fill="#DFC279"/>
<path fill-rule="evenodd" clip-rule="evenodd" d="M2.47906 8.5C1.76839 8.5 1.05404 8.85106 0.709446 9.53692C0.427639 10.0978 0.0821895 10.932 0.00713175 11.7948C-0.0484395 12.4336 0.220702 13.0913 0.816293 13.4564C1.75896 14.0341 3.70163 14.875 7 14.875C10.2984 14.875 12.241 14.0341 13.1837 13.4564C13.7793 13.0913 14.0484 12.4336 13.9929 11.7948C13.9178 10.932 13.5724 10.0978 13.2906 9.53692C12.946 8.85106 12.2316 8.5 11.5209 8.5H2.47906ZM1.67434 10.0088C1.80911 9.74057 2.11038 9.5625 2.47906 9.5625H11.5209C11.8896 9.5625 12.1909 9.74057 12.3257 10.0088C12.5841 10.5233 12.8618 11.2176 12.9199 11.8857C12.9457 12.1827 12.8203 12.4282 12.6154 12.5538C11.8474 13.0245 10.1024 13.8125 7 13.8125C3.89763 13.8125 2.15257 13.0245 1.38457 12.5538C1.17968 12.4282 1.05429 12.1827 1.08012 11.8857C1.13824 11.2176 1.41587 10.5233 1.67434 10.0088Z" fill="#DFC279"/>
</svg>
