<svg width="17" height="16" viewBox="0 0 17 16" fill="none" xmlns="http://www.w3.org/2000/svg">
<path d="M9.5029 14.869C10.1978 15.1481 10.7853 15.3233 11.2655 15.3944C11.7457 15.4656 12.0932 15.5012 12.308 15.5012C12.3984 15.5012 12.4718 15.4984 12.5282 15.493M9.5029 14.869L13.5113 15.0577C13.4096 15.1672 13.2768 15.2603 13.113 15.3369C12.9492 15.4135 12.7882 15.4628 12.63 15.4847M9.5029 14.869C8.80787 14.5898 8.01976 14.171 7.13844 13.6128L9.5029 14.869ZM12.5282 15.493C12.5848 15.4875 12.6187 15.4847 12.63 15.4847M12.5282 15.493L12.48 14.9953L12.4802 14.9953M12.5282 15.493L12.4802 14.9953M12.63 15.4847V14.9847C12.6156 14.9847 12.5983 14.9854 12.5801 14.9866M12.63 15.4847L12.5616 14.9894C12.5677 14.9885 12.5739 14.9876 12.5801 14.9866M12.5801 14.9866C12.6775 14.9712 12.7842 14.9387 12.9011 14.884L12.9014 14.8839C13.0186 14.8291 13.0951 14.7711 13.145 14.7174L13.1546 14.7071L13.1647 14.6973L15.4176 12.5312C15.4178 12.531 15.418 12.5308 15.4182 12.5306C15.4964 12.4546 15.5159 12.3947 15.5094 12.3192C15.4954 12.2699 15.4564 12.2019 15.3257 12.1226L12.1749 10.3195H12.1561L12.0396 10.2518C12.0306 10.2466 11.9759 10.221 11.8333 10.221C11.6857 10.221 11.5676 10.2635 11.4588 10.3532L10.5064 11.2922L10.5033 11.2952L10.5033 11.2952C10.3999 11.3954 10.2782 11.4438 10.199 11.4694L10.1987 11.4695C10.1476 11.486 10.044 11.5183 9.93496 11.5183H9.88692L9.83976 11.5091L9.62829 11.4681C9.62818 11.4681 9.62807 11.4681 9.62795 11.468C9.41724 11.4273 9.16375 11.3221 8.8913 11.1873C8.5927 11.0396 8.23822 10.8178 7.83316 10.5319L7.83309 10.5319C7.40819 10.2319 6.93585 9.82143 6.41758 9.30839C5.88851 8.80667 5.46676 8.35112 5.16175 7.94333C4.87231 7.55636 4.64587 7.21248 4.49245 6.91592C4.32092 6.59491 4.19705 6.2851 4.13933 5.9915L4.12994 5.94373V5.89505C4.12994 5.78415 4.15688 5.68387 4.18256 5.60922C4.21033 5.52851 4.26221 5.40735 4.36677 5.30605L4.71468 5.66516L4.36677 5.30605L5.19728 4.50143C5.27038 4.43061 5.31956 4.34471 5.34473 4.2289C5.36491 4.13601 5.35181 4.07278 5.31618 4.0114L5.30921 3.99939L5.30937 3.9993L3.50698 0.686416C3.46232 0.621868 3.41114 0.569914 3.35298 0.527649C3.32999 0.510949 3.30416 0.5 3.25706 0.5C3.1949 0.5 3.13601 0.517872 3.0626 0.588997L0.808363 2.77296L0.79894 2.78208L0.789051 2.79071C0.733539 2.83911 0.67499 2.91204 0.619835 3.02273C0.565993 3.13079 0.534115 3.22827 0.518431 3.3161C0.515887 3.37905 0.509907 3.48696 0.502005 3.62477C0.493817 3.76755 0.509685 3.99635 0.564043 4.32813C0.614873 4.63838 0.714029 5.02193 0.867158 5.4829C1.01376 5.92421 1.2377 6.42789 1.54445 6.99568L1.54446 6.99569C1.84601 7.55391 2.24923 8.17024 2.75807 8.84544C3.2579 9.50862 3.89395 10.211 4.6702 10.9523L4.67485 10.9567L4.67482 10.9568C5.65185 11.9141 6.5623 12.656 7.40598 13.1904L7.40599 13.1904C8.27082 13.7382 9.03111 14.1407 9.68925 14.405L9.68926 14.405C10.3651 14.6765 10.9123 14.8366 11.3388 14.8998C11.8173 14.9708 12.1331 15.0012 12.308 15.0012C12.3902 15.0012 12.446 14.9986 12.4802 14.9953M12.5801 14.9866C12.5475 14.9888 12.5121 14.9922 12.4846 14.9949L12.4802 14.9953" stroke="white"/>
</svg>
