<svg width="19" height="19" viewBox="0 0 19 19" fill="none" xmlns="http://www.w3.org/2000/svg">
<g clip-path="url(#clip0_724_2514)">
<path d="M8.44392 18.2962C8.246 18.0745 8.02117 17.8228 7.85017 17.7895C7.57382 17.8013 7.30577 17.8874 7.07433 18.0389L7.07987 18.035C6.80043 18.1993 6.48881 18.3014 6.16629 18.3342L6.15679 18.335H6.14887C6.04916 18.3351 5.95042 18.3155 5.85833 18.2772L5.86308 18.2788C5.47437 18.1173 5.31683 17.6676 5.16642 17.2322C5.1061 16.97 4.9818 16.7269 4.80462 16.5245L4.80621 16.526C4.6693 16.4596 4.51678 16.4319 4.36525 16.4461H4.36842C4.25283 16.4461 4.13092 16.4532 4.009 16.4603C3.87758 16.4683 3.74617 16.4746 3.62108 16.4746C3.47087 16.4887 3.31935 16.4731 3.1752 16.4285C3.03106 16.384 2.89713 16.3114 2.78112 16.2149L2.78271 16.2165C2.65815 16.0389 2.57229 15.8371 2.5307 15.6243C2.4891 15.4114 2.4927 15.1921 2.54125 14.9807L2.53967 14.991C2.58606 14.7203 2.56318 14.4422 2.47317 14.1827L2.47633 14.1946C2.27756 14.0198 2.03885 13.8967 1.78125 13.836L1.77017 13.8336C1.33475 13.6824 0.8835 13.5256 0.723583 13.1369C0.677708 12.9273 0.676051 12.7104 0.718716 12.5C0.761381 12.2897 0.847432 12.0906 0.971375 11.9154L0.968208 11.9201C1.11284 11.6879 1.19645 11.423 1.21125 11.1498V11.1459C1.178 10.9741 0.92625 10.75 0.704583 10.5521C0.357833 10.245 0 9.92592 0 9.49921C0 9.0725 0.357833 8.75346 0.703792 8.44392C0.925458 8.246 1.17721 8.02117 1.21046 7.85017C1.19439 7.57436 1.10859 7.30714 0.961083 7.07354L0.965042 7.07987C0.841444 6.90334 0.756117 6.70291 0.714536 6.49146C0.672954 6.28 0.676036 6.06219 0.723583 5.852L0.722 5.86229C0.8835 5.47358 1.33317 5.31604 1.76858 5.16563C2.0425 5.1015 2.28079 4.97563 2.47633 4.80304L2.47475 4.80463C2.564 4.54543 2.58526 4.26767 2.5365 3.99792L2.53808 4.00742C2.49143 3.79642 2.48915 3.57803 2.5314 3.3661C2.57365 3.15418 2.6595 2.95335 2.7835 2.77638L2.78033 2.78113C2.89695 2.68504 3.03138 2.61292 3.17593 2.5689C3.32048 2.52488 3.47229 2.50984 3.62267 2.52463H3.61792C3.74458 2.52463 3.87521 2.53175 4.00583 2.53888C4.12775 2.546 4.24967 2.55312 4.36525 2.55312C4.51745 2.56707 4.67055 2.53886 4.80779 2.47158L4.80304 2.47396C4.97325 2.27921 5.09912 2.04171 5.16087 1.77887L5.16325 1.76779C5.31525 1.33238 5.472 0.881125 5.85992 0.721208C5.95058 0.684041 6.04772 0.665206 6.14571 0.665792H6.15442H6.15362C6.49879 0.701417 6.81229 0.808292 7.08858 0.971375L7.0775 0.965833C7.30606 1.11613 7.57129 1.20125 7.84462 1.21204H7.84779C8.01958 1.17879 8.24362 0.927042 8.44154 0.705375C8.75346 0.357833 9.07329 0 9.5 0C9.92671 0 10.2457 0.357833 10.5553 0.704583C10.7532 0.92625 10.978 1.178 11.149 1.21125C11.4253 1.1985 11.6932 1.11213 11.9249 0.961083L11.9185 0.965042C12.1982 0.800738 12.5102 0.698921 12.8329 0.666583L12.8424 0.665792H12.8503C12.9532 0.665792 13.0514 0.686375 13.1409 0.723583L13.1361 0.722C13.5248 0.8835 13.6824 1.33317 13.8328 1.76858C13.8969 2.0425 14.0228 2.28 14.1946 2.47633L14.193 2.47475C14.3302 2.54115 14.4831 2.56827 14.6347 2.55312H14.6316C14.7472 2.55312 14.8691 2.546 14.991 2.53967C15.1224 2.53254 15.2538 2.52542 15.3789 2.52542C15.5292 2.51136 15.6809 2.52706 15.8251 2.57162C15.9694 2.61617 16.1034 2.68871 16.2197 2.78508L16.2181 2.7835C16.3422 2.96128 16.4278 3.16308 16.4692 3.37592C16.5107 3.58876 16.5071 3.80792 16.4587 4.01929L16.4603 4.009C16.4138 4.27978 16.437 4.55794 16.5276 4.81729L16.5245 4.80621C16.7184 4.97721 16.9567 5.10308 17.2195 5.16404L17.2306 5.16642C17.666 5.31842 18.1173 5.47517 18.2772 5.86308C18.3226 6.07271 18.3241 6.28948 18.2816 6.49971C18.2391 6.70995 18.1535 6.9091 18.0302 7.08463L18.0334 7.07987C17.8883 7.31029 17.8039 7.57363 17.788 7.84542V7.85017C17.8212 8.02196 18.073 8.246 18.2946 8.44392C18.6437 8.75504 19.0016 9.07408 19.0016 9.50079C19.0016 9.9275 18.6437 10.2473 18.297 10.5569C18.0753 10.7548 17.8236 10.9788 17.7903 11.1506C17.8077 11.438 17.8972 11.7016 18.0397 11.928L18.0357 11.9209C18.1594 12.0973 18.2447 12.2976 18.2863 12.5089C18.3279 12.7202 18.3248 12.9379 18.2772 13.148L18.2788 13.1377C18.1181 13.5272 17.6676 13.684 17.2322 13.8344C16.9699 13.8947 16.7267 14.0193 16.5245 14.197L16.526 14.1954C16.4368 14.4546 16.4155 14.7323 16.4643 15.0021L16.4627 14.9926C16.5093 15.2035 16.5115 15.4217 16.4692 15.6335C16.427 15.8453 16.3412 16.046 16.2173 16.2228L16.2205 16.2181C16.1041 16.3144 15.9698 16.3867 15.8254 16.431C15.681 16.4753 15.5293 16.4906 15.3789 16.4762H15.3837C15.257 16.4762 15.1264 16.469 14.9957 16.4619C14.8761 16.4537 14.7563 16.449 14.6363 16.4477C14.4841 16.4334 14.3309 16.4617 14.1938 16.5292L14.1985 16.5268C14.0243 16.7259 13.9015 16.9645 13.8407 17.2219L13.8383 17.233C13.6863 17.6684 13.5296 18.1197 13.1417 18.2796C13.051 18.3168 12.9539 18.3356 12.8559 18.335H12.8472H12.848C12.518 18.3021 12.1992 18.1975 11.9138 18.0286L11.9241 18.0342C11.6956 17.8838 11.4303 17.7989 11.157 17.7887H11.1538C10.982 17.822 10.758 18.0738 10.56 18.2954C10.2473 18.6422 9.92829 19 9.50079 19C9.07329 19 8.75504 18.6422 8.44471 18.2962H8.44392ZM11.2401 5.78629L7.37675 12.8068C7.36576 12.8268 7.36016 12.8493 7.3605 12.8721C7.36084 12.8949 7.3671 12.9172 7.37868 12.9369C7.39027 12.9565 7.40676 12.9728 7.42655 12.9841C7.44634 12.9955 7.46873 13.0015 7.49154 13.0015H8.16208C8.18537 13.0016 8.20825 12.9954 8.2283 12.9835C8.24836 12.9717 8.26486 12.9547 8.27608 12.9342V12.9335L12.1339 5.91217C12.1449 5.89218 12.1505 5.86968 12.1501 5.84688C12.1498 5.82407 12.1435 5.80175 12.1319 5.7821C12.1204 5.76245 12.1039 5.74616 12.0841 5.73482C12.0643 5.72347 12.0419 5.71748 12.0191 5.71742H11.3549C11.3314 5.71748 11.3084 5.72383 11.2882 5.7358C11.268 5.74777 11.2514 5.76494 11.2401 5.7855V5.78629ZM10.6827 9.38758C10.5822 9.47075 10.5012 9.57512 10.4456 9.69323C10.39 9.81134 10.3613 9.94027 10.3613 10.0708V11.9716C10.3613 12.2439 10.4864 12.487 10.682 12.6469L10.6835 12.6485C10.8862 12.8179 11.149 12.92 11.4364 12.92C11.7238 12.92 11.9866 12.8171 12.1909 12.6469L12.1893 12.6485C12.3872 12.4878 12.5123 12.2447 12.5123 11.9724V10.0724C12.5123 9.80004 12.3896 9.55542 12.1972 9.39233L12.1956 9.39154C11.995 9.21125 11.7347 9.11169 11.4649 9.11208H11.4404H11.442H11.4174C11.1469 9.1117 10.8856 9.21025 10.6827 9.38917L10.6843 9.38838L10.6827 9.38758ZM7.32292 5.97788C7.22232 6.06104 7.14134 6.16541 7.08578 6.28352C7.03021 6.40163 7.00143 6.53056 7.0015 6.66108V8.56108C7.0015 8.83421 7.12579 9.07883 7.32212 9.23954L7.32371 9.24113C7.52637 9.41292 7.79 9.51663 8.07817 9.51663C8.36633 9.51663 8.63075 9.41212 8.83421 9.23954L8.83262 9.24113C9.03212 9.07883 9.158 8.83421 9.158 8.5595V6.66425C9.158 6.38954 9.03371 6.14492 8.83737 5.98183L8.83579 5.98104C8.62438 5.80098 8.35572 5.70215 8.07802 5.70229C7.80032 5.70244 7.53176 5.80155 7.32054 5.98183L7.32212 5.98025L7.32292 5.97788ZM11.2638 12.0745C11.2468 12.0609 11.2331 12.0437 11.2236 12.0241C11.2141 12.0045 11.2092 11.9831 11.2092 11.9613V10.0605C11.2092 10.0146 11.2306 9.97421 11.263 9.94808C11.3041 9.91243 11.3567 9.89275 11.4111 9.89267H11.4214H11.4206H11.4301C11.4846 9.89262 11.5374 9.91199 11.5789 9.94729C11.5958 9.96076 11.6095 9.97785 11.619 9.99731C11.6284 10.0168 11.6334 10.0381 11.6335 10.0597V11.9613C11.6336 11.9829 11.6287 12.0042 11.6194 12.0236C11.6101 12.0431 11.5965 12.0602 11.5797 12.0737C11.537 12.1085 11.4815 12.1291 11.4214 12.1291C11.3612 12.1291 11.3058 12.1085 11.2622 12.0729H11.263L11.2638 12.0745ZM7.90717 8.66558C7.89023 8.65195 7.87654 8.63472 7.86709 8.61514C7.85764 8.59556 7.85267 8.57412 7.85254 8.55238V6.65238C7.85254 6.60646 7.87392 6.56608 7.90637 6.53917C7.94912 6.50433 8.00454 6.48375 8.06471 6.48375C8.12488 6.48375 8.18029 6.50433 8.22383 6.53996H8.22304C8.24006 6.55351 8.25381 6.57073 8.26327 6.59033C8.27273 6.60993 8.27765 6.63141 8.27767 6.65317V8.55396C8.27763 8.57564 8.27278 8.59704 8.26347 8.61661C8.25416 8.63619 8.24062 8.65346 8.22383 8.66717C8.18108 8.702 8.12567 8.72258 8.0655 8.72258C8.00533 8.72258 7.94992 8.702 7.90637 8.66638H7.90717V8.66558Z" fill="#ECD59C"/>
</g>
<defs>
<clipPath id="clip0_724_2514">
<rect width="19" height="19" fill="white"/>
</clipPath>
</defs>
</svg>
